# xmcd
#
# Track frame offsets:
#	150
#	14317
#	28714
#	40799
#	52842
#	75405
#	88299
#	104496
#	117228
#	136173
#	146457
#	156197
#	170015
#
# Disc length: 2494 seconds
#
# Revision: 2
# Processed by: cddbd v1.5.1PL0 Copyright (c) Steve Scherf et al.
# Submitted via: EasyCDDAExtractor 8.0.1.2
#
DISCID=a109bc0d
DTITLE=Various Artist - Lackawanna Blues
DYEAR=2004
DGENRE=Blues
TTITLE0=Mos Def - Caldonia
TTITLE1=Ricky Fante - That's All I Need
TTITLE2=Little Jimmy Scott - If I Ever Lost You
TTITLE3=Big Joe Turner - Boogie Woogie Country Girl
TTITLE4=Robert Bradley - Dark Road
TTITLE5=J.J. Jackson - But It's Alright
TTITLE6=Etta Baker - One Dime Blues
TTITLE7=Tommy Tucker - High Heel Sneakers
TTITLE8=Robert Bradley - Something Inside Me
TTITLE9=Mos Def - Destination Love
TTITLE10=T-Bone Walker - Party Girl
TTITLE11=Various Artist - Faith and Grace
TTITLE12=Robert Bradley and Macy Gray - Down on Me
EXTD=
EXTT0=
EXTT1=
EXTT2=
EXTT3=
EXTT4=
EXTT5=
EXTT6=
EXTT7=
EXTT8=
EXTT9=
EXTT10=
EXTT11=
EXTT12=
PLAYORDER=
